HIERARCHY
ROOT Pelvis
{
	OFFSET 0.000000 0.000000 0.000000
	CHANNELS 6 Xposition Yposition Zposition Xrotation Yrotation Zrotation
	JOINT LeftUpLeg_virtual
	{
		OFFSET 0.000000 0.000000 0.000000
		CHANNELS 3 Xrotation Yrotation Zrotation
		JOINT LeftUpLeg
		{
			OFFSET 18.735201 -5.666702 -4.541200
			CHANNELS 3 Xrotation Yrotation Zrotation
			JOINT LeftLeg
			{
				OFFSET -0.021200 -31.938179 0.493100
				CHANNELS 3 Xrotation Yrotation Zrotation
				JOINT LeftFoot
				{
					OFFSET 0.021200 -31.938179 -4.336299
					CHANNELS 3 Xrotation Yrotation Zrotation
					JOINT LeftToeBase
					{
						OFFSET 0.943001 -26.722000 15.023500
						CHANNELS 3 Xrotation Yrotation Zrotation
						End Site
						{
							OFFSET 0 0 0
						}
					}
				}
			}
		}
	}
	JOINT RightUpLeg_virtual
	{
		OFFSET 0.000000 0.000000 0.000000
		CHANNELS 3 Xrotation Yrotation Zrotation
		JOINT RightUpLeg
		{
			OFFSET -18.735201 -5.666702 -4.541200
			CHANNELS 3 Xrotation Yrotation Zrotation
			JOINT RightLeg
			{
				OFFSET 0.018946 -31.938133 0.493100
				CHANNELS 3 Xrotation Yrotation Zrotation
				JOINT RightFoot
				{
					OFFSET -0.018946 -31.938126 -4.336299
					CHANNELS 3 Xrotation Yrotation Zrotation
					JOINT RightToeBase
					{
						OFFSET -0.943001 -26.722004 15.023500
						CHANNELS 3 Xrotation Yrotation Zrotation
						End Site
						{
							OFFSET 0 0 0
						}
					}
				}
			}
		}
	}
	JOINT Hips_virtual
	{
		OFFSET 0.000000 0.000000 0.000000
		CHANNELS 3 Xrotation Yrotation Zrotation
		JOINT Hips
		{
			OFFSET -0.000000 -0.000000 -0.000000
			CHANNELS 3 Xrotation Yrotation Zrotation
			JOINT Spine
			{
				OFFSET 0.000000 10.199997 -0.299500
				CHANNELS 3 Xrotation Yrotation Zrotation
				JOINT Spine1
				{
					OFFSET 0.000000 11.900002 -1.516600
					CHANNELS 3 Xrotation Yrotation Zrotation
					JOINT Spine2
					{
						OFFSET 0.000000 13.600006 -2.842500
						CHANNELS 3 Xrotation Yrotation Zrotation
						JOINT Neck_virtual
						{
							OFFSET 0.000000 0.000000 0.000000
							CHANNELS 3 Xrotation Yrotation Zrotation
							JOINT Neck
							{
								OFFSET 0.000000 9.624100 -2.890100
								CHANNELS 3 Xrotation Yrotation Zrotation
								JOINT Head
								{
									OFFSET 0.000000 14.068802 -1.351900
									CHANNELS 3 Xrotation Yrotation Zrotation
									End Site
									{
										OFFSET 0 0 0
									}
								}
							}
						}
						JOINT LeftShoulder_virtual
						{
							OFFSET 0.000000 0.000000 0.000000
							CHANNELS 3 Xrotation Yrotation Zrotation
							JOINT LeftShoulder
							{
								OFFSET 15.263000 10.923401 -0.547700
								CHANNELS 3 Xrotation Yrotation Zrotation
								JOINT LeftArm
								{
									OFFSET 25.438599 -2.830597 -13.032500
									CHANNELS 3 Xrotation Yrotation Zrotation
									JOINT LeftForeArm
									{
										OFFSET 29.960503 0.000000 0.000000
										CHANNELS 3 Xrotation Yrotation Zrotation
										JOINT LeftHand
										{
											OFFSET 27.849251 0.000000 0.000000
											CHANNELS 3 Xrotation Yrotation Zrotation
											End Site
											{
												OFFSET 0 0 0
											}
										}
									}
								}
							}
						}
						JOINT RightShoulder_virtual
						{
							OFFSET 0.000000 0.000000 0.000000
							CHANNELS 3 Xrotation Yrotation Zrotation
							JOINT RightShoulder
							{
								OFFSET -15.263000 10.923401 -0.547700
								CHANNELS 3 Xrotation Yrotation Zrotation
								JOINT RightArm
								{
									OFFSET -25.438599 -2.830597 -13.032500
									CHANNELS 3 Xrotation Yrotation Zrotation
									JOINT RightForeArm
									{
										OFFSET -29.960503 0.000000 0.000000
										CHANNELS 3 Xrotation Yrotation Zrotation
										JOINT RightHand
										{
											OFFSET -27.849251 0.000000 0.000000
											CHANNELS 3 Xrotation Yrotation Zrotation
											End Site
											{
												OFFSET 0 0 0
											}
										}
									}
								}
							}
						}
					}
				}
			}
		}
	}
}
MOTION
Frames: 13
Frame Time: 0.03333333
6.389717 20.449936 179.464630 0.000000 0.000000 0.000000 -86.980437 5.814948 5.104457 -58.797205 -37.552739 31.688885 92.236090 -11.913245 0.478794 18.116944 0.510515 -20.210586 0.000000 0.000000 0.000000 -88.551292 6.935023 5.604653 -70.842196 13.745005 -17.814955 94.376357 8.244071 -1.639256 14.650964 5.363654 18.358346 0.000000 0.000000 0.000000 -88.012370 6.365431 5.914051 -0.743757 -0.788838 -1.723303 3.790059 0.096055 3.290012 0.177498 0.212693 0.341530 0.000000 0.000000 0.000000 -0.167771 -0.432097 0.318714 2.610154 -0.034009 0.344033 0.000000 0.000000 0.000000 -0.629331 0.196703 0.353496 0.504738 -12.291293 -3.170465 60.177723 -21.110144 -41.648772 1.984800 -38.115693 3.855733 0.000000 0.000000 0.000000 0.395340 0.025025 0.226563 -2.766432 6.735142 11.853151 82.590675 23.076592 21.494397 2.356675 41.158290 -3.335822 0.000000 0.000000 0.000000 
6.716852 20.124794 178.995422 0.000000 0.000000 0.000000 -87.544877 5.725778 4.873180 -59.061889 -38.808623 30.417595 92.489497 -11.811916 0.971008 17.824413 0.095546 -20.050997 0.000000 0.000000 0.000000 -89.110650 6.927155 5.513691 -68.495623 12.954460 -19.397186 92.135400 8.538075 -1.931491 13.252296 5.756976 20.506473 0.000000 0.000000 0.000000 -88.448061 6.295629 5.808044 -0.840895 -0.561485 -1.916972 4.425556 0.073743 3.190859 0.383971 0.107947 0.268168 0.000000 0.000000 0.000000 -0.071372 -0.536627 0.192910 2.959582 -0.049696 0.419593 0.000000 0.000000 0.000000 -0.399379 0.080846 0.265766 0.658360 -12.532162 -3.462523 59.157880 -20.365742 -41.885975 1.967353 -38.438044 3.902399 0.000000 0.000000 0.000000 0.472257 -0.088056 0.156311 -2.776877 6.426255 12.432853 82.172346 22.411661 20.964859 1.613483 40.084376 -2.617621 0.000000 0.000000 0.000000 
7.007433 19.818218 178.631714 0.000000 0.000000 0.000000 -87.937627 5.487301 4.626213 -58.755801 -39.563584 29.378218 92.326659 -11.560661 1.361057 17.170035 -0.240973 -20.179862 0.000000 0.000000 0.000000 -89.410127 6.869080 5.432513 -65.855291 11.749600 -21.139743 90.054514 8.818227 -2.021441 10.857732 5.769658 22.705147 0.000000 0.000000 0.000000 -88.843918 6.202867 5.681329 -0.985222 -0.353618 -2.067002 5.004387 -0.013658 3.070321 0.601832 -0.044865 0.183669 0.000000 0.000000 0.000000 0.089187 -0.689828 0.063469 3.280149 -0.081285 0.500102 0.000000 0.000000 0.000000 -0.096160 -0.087543 0.180318 0.892310 -12.635085 -3.879295 58.482894 -19.362413 -41.475979 1.968262 -38.905912 3.873882 0.000000 0.000000 0.000000 0.598187 -0.244282 0.063105 -2.779699 6.244932 12.820393 81.384825 21.887044 21.005265 1.007953 38.947374 -1.990782 0.000000 0.000000 0.000000 
7.240435 19.575657 178.231400 0.000000 0.000000 0.000000 -88.229385 5.261331 4.431694 -58.617647 -39.727058 28.598851 91.927987 -11.114500 1.425199 16.654334 -0.378068 -20.340163 0.000000 0.000000 0.000000 -89.573860 6.796030 5.366597 -63.009841 9.803071 -23.045931 87.979633 8.945706 -1.832302 7.880497 5.377542 24.744860 0.000000 0.000000 0.000000 -89.154220 6.087588 5.513388 -1.172479 -0.109532 -2.146957 5.525432 -0.148419 3.015585 0.843079 -0.208108 0.111831 0.000000 0.000000 0.000000 0.333753 -0.856818 -0.051396 3.549063 -0.123574 0.569511 0.000000 0.000000 0.000000 0.296125 -0.270657 0.100214 1.197183 -12.413561 -4.448153 58.111277 -18.314261 -40.392059 1.981109 -39.372496 3.764698 0.000000 0.000000 0.000000 0.805092 -0.402226 -0.039244 -2.806070 6.260982 13.062425 80.084931 21.835932 21.473833 0.573476 37.785368 -1.550430 0.000000 0.000000 0.000000 
7.388601 19.407528 177.789474 0.000000 0.000000 0.000000 -88.363694 5.157056 4.320709 -59.296649 -39.435566 27.807785 91.617979 -10.508584 1.164417 16.888935 -0.194437 -20.178271 0.000000 0.000000 0.000000 -89.614445 6.718584 5.227361 -59.882857 7.122665 -24.851961 85.488048 8.950432 -1.498408 4.883241 4.868132 26.557825 0.000000 0.000000 0.000000 -89.338567 5.980379 5.341217 -1.200408 0.038491 -2.098423 6.043756 -0.317127 3.042292 1.138025 -0.340983 0.057376 0.000000 0.000000 0.000000 0.692225 -1.009058 -0.152122 3.749026 -0.161608 0.603189 0.000000 0.000000 0.000000 0.768134 -0.431228 0.020496 1.561683 -11.666944 -5.208397 57.873791 -17.410400 -38.675181 2.040941 -39.770945 3.630823 0.000000 0.000000 0.000000 1.111690 -0.531331 -0.141887 -2.868886 6.449790 13.219899 78.224073 22.271975 22.275084 0.352257 36.745810 -1.362744 0.000000 0.000000 0.000000 
7.508727 19.308559 177.351074 0.000000 0.000000 0.000000 -88.429920 5.188039 4.292099 -60.839500 -38.856833 26.777586 91.545224 -9.784313 0.702148 17.504098 0.304999 -19.622466 0.000000 0.000000 0.000000 -89.634089 6.664930 5.056478 -56.627029 4.160105 -26.258681 82.429086 8.871218 -1.290633 2.569472 4.596680 28.152967 0.000000 0.000000 0.000000 -89.398638 5.894055 5.177590 -1.100804 0.120591 -1.984872 6.595187 -0.496686 3.136952 1.513131 -0.441145 0.013397 0.000000 0.000000 0.000000 1.169726 -1.132428 -0.240181 3.881802 -0.181361 0.581667 0.000000 0.000000 0.000000 1.318010 -0.557238 -0.056754 1.987443 -10.309313 -6.172146 57.564151 -16.875726 -36.417264 2.166738 -40.061119 3.514969 0.000000 0.000000 0.000000 1.529358 -0.627400 -0.233905 -2.969684 6.817795 13.375988 75.784965 22.870262 23.323684 0.301637 35.986996 -1.372615 0.000000 0.000000 0.000000 
7.612227 19.209354 176.868851 0.000000 0.000000 0.000000 -88.371426 5.263786 4.254921 -62.642076 -38.271968 25.259962 91.377747 -9.169100 0.371022 17.698647 0.739870 -18.933821 0.000000 0.000000 0.000000 -89.686558 6.637418 4.934366 -53.343856 1.418072 -27.000735 78.776622 8.681232 -1.418363 1.361696 4.592588 29.263420 0.000000 0.000000 0.000000 -89.363791 5.811068 5.024491 -0.992351 0.159710 -1.917177 7.197932 -0.681333 3.277670 1.983593 -0.518721 -0.025089 0.000000 0.000000 0.000000 1.745743 -1.233304 -0.316134 3.955454 -0.176960 0.494660 0.000000 0.000000 0.000000 1.914594 -0.656086 -0.125144 2.476538 -8.323366 -7.336579 57.099354 -16.816998 -33.656703 2.355833 -40.121119 3.426686 0.000000 0.000000 0.000000 2.043257 -0.702341 -0.313866 -3.105305 7.313262 13.587563 72.847902 23.253613 24.512603 0.375280 35.611295 -1.509739 0.000000 0.000000 0.000000 
7.704690 19.112183 176.468552 0.000000 0.000000 0.000000 -88.137164 5.321550 4.163609 -64.350388 -37.698847 23.342856 90.966993 -8.740559 0.295543 17.718532 0.968084 -18.259565 0.000000 0.000000 0.000000 -89.680370 6.654814 4.854203 -50.200873 -0.939724 -27.082373 74.747808 8.342795 -1.798773 0.761737 4.512971 29.506199 0.000000 0.000000 0.000000 -89.184519 5.793531 4.878362 -0.849389 0.114074 -1.860982 7.821461 -0.873556 3.444660 2.539704 -0.591307 -0.062721 0.000000 0.000000 0.000000 2.399922 -1.319217 -0.383323 3.984016 -0.152273 0.353099 0.000000 0.000000 0.000000 2.547058 -0.734586 -0.186697 3.043724 -5.775559 -8.626801 56.493406 -17.181209 -30.409703 2.619040 -39.792522 3.388450 0.000000 0.000000 0.000000 2.629622 -0.772306 -0.382954 -3.258104 7.832769 13.879816 69.563134 23.213074 25.821416 0.554932 35.627394 -1.711968 0.000000 0.000000 0.000000 
7.784784 18.999947 176.181122 0.000000 0.000000 0.000000 -87.834798 5.325332 3.995346 -66.080168 -36.847860 21.462946 90.461402 -8.284096 0.175956 18.237614 1.160358 -17.519051 0.000000 0.000000 0.000000 -89.523248 6.641218 4.723559 -47.595975 -3.156854 -26.805185 70.824574 7.687924 -2.105321 0.020568 3.929655 28.662421 0.000000 0.000000 0.000000 -88.850338 5.790195 4.678333 -0.817287 0.100732 -1.890031 8.409595 -1.064209 3.627972 3.133501 -0.673991 -0.103687 0.000000 0.000000 0.000000 3.090358 -1.399931 -0.442699 3.987713 -0.118033 0.181071 0.000000 0.000000 0.000000 3.201769 -0.807391 -0.240452 3.687112 -2.835559 -9.981740 55.760893 -17.898821 -26.781675 2.935060 -38.886364 3.361977 0.000000 0.000000 0.000000 3.254927 -0.851374 -0.450803 -3.410626 8.313673 14.280167 66.049077 22.778683 27.287407 0.800151 35.925736 -1.930807 0.000000 0.000000 0.000000 
7.814136 18.852558 175.968323 0.000000 0.000000 0.000000 -87.383938 5.264007 3.735909 -68.026936 -35.707806 19.845178 89.997605 -7.687364 -0.087537 19.551801 1.395008 -16.663543 0.000000 0.000000 0.000000 -89.135765 6.543486 4.494740 -45.758709 -5.515594 -26.352699 67.134250 6.701826 -2.181122 -0.864926 2.867737 26.918117 0.000000 0.000000 0.000000 -88.294129 5.724241 4.403568 -0.844456 0.018929 -1.965099 8.937282 -1.246725 3.809009 3.727834 -0.759476 -0.153732 0.000000 0.000000 0.000000 3.775002 -1.483729 -0.512138 3.975717 -0.081018 0.005526 0.000000 0.000000 0.000000 3.854957 -0.879652 -0.305433 4.394724 0.279731 -11.336227 54.980738 -18.832565 -22.921556 3.308016 -37.480246 3.331766 0.000000 0.000000 0.000000 3.883766 -0.939225 -0.536542 -3.552892 8.700957 14.779558 62.417827 22.145531 28.934730 1.108268 36.307366 -2.155879 0.000000 0.000000 0.000000 
7.751515 18.713776 175.885468 0.000000 0.000000 0.000000 -86.693446 5.093898 3.401942 -70.352451 -34.575469 18.432871 89.826748 -6.948314 -0.364566 21.720609 1.802172 -15.685085 0.000000 0.000000 0.000000 -88.414313 6.323188 4.125831 -44.604906 -7.963939 -25.677389 63.466398 5.694237 -2.105411 -1.356313 1.872762 24.944891 0.000000 0.000000 0.000000 -87.465121 5.570203 4.081027 -0.885958 -0.045304 -1.964862 9.415395 -1.380465 3.928976 4.292132 -0.833952 -0.231894 0.000000 0.000000 0.000000 4.425869 -1.562525 -0.612703 3.958198 -0.046817 -0.146972 0.000000 0.000000 0.000000 4.494743 -0.947171 -0.408388 5.125990 3.303117 -12.669518 54.107611 -19.861642 -19.073855 3.751468 -35.867311 3.288411 0.000000 0.000000 0.000000 4.495273 -1.021975 -0.660565 -3.676065 8.992423 15.373619 58.821985 21.423013 30.697110 1.463836 36.592711 -2.360972 0.000000 0.000000 0.000000 
7.599762 18.588703 175.939117 0.000000 0.000000 0.000000 -85.743770 4.717978 2.967308 -72.744609 -33.582176 17.223878 89.940436 -6.099099 -0.531041 23.888062 2.349777 -14.735667 0.000000 0.000000 0.000000 -87.355763 5.884565 3.596840 -43.958394 -10.241458 -24.741920 59.692821 4.911435 -2.053546 -0.989233 1.306800 23.261145 0.000000 0.000000 0.000000 -86.403478 5.247071 3.705566 -0.952549 -0.063481 -1.932679 9.862813 -1.426095 3.940256 4.804474 -0.874481 -0.350432 0.000000 0.000000 0.000000 5.009533 -1.625475 -0.757671 3.937744 -0.020076 -0.265662 0.000000 0.000000 0.000000 5.100163 -1.002726 -0.558243 5.829409 5.980282 -13.996741 53.006110 -20.936622 -15.502707 4.280576 -34.520466 3.251704 0.000000 0.000000 0.000000 5.065443 -1.080175 -0.829974 -3.786926 9.219303 16.051966 55.369560 20.624282 32.430438 1.843831 36.622914 -2.522334 0.000000 0.000000 0.000000 
7.394369 18.479500 176.047485 0.000000 0.000000 0.000000 -84.528550 4.104921 2.434725 -74.711560 -32.890691 16.168335 89.902003 -5.328930 -0.405727 24.827850 2.671495 -14.163955 0.000000 0.000000 0.000000 -86.089706 5.268000 3.017094 -43.500932 -12.121511 -23.506603 55.644605 4.459617 -2.160987 0.170296 1.069935 21.933576 0.000000 0.000000 0.000000 -85.135801 4.727463 3.265830 -0.978005 -0.120914 -1.922347 10.311861 -1.360974 3.826301 5.271142 -0.866848 -0.504262 0.000000 0.000000 0.000000 5.521648 -1.654976 -0.942780 3.918596 -0.000880 -0.344226 0.000000 0.000000 0.000000 5.654292 -1.032831 -0.749685 6.457599 8.110543 -15.327677 51.519751 -21.931971 -12.515999 4.891871 -33.727956 3.241593 0.000000 0.000000 0.000000 5.585123 -1.094599 -1.034924 -3.895873 9.406407 16.778310 52.189264 19.780475 33.936720 2.229698 36.298446 -2.616709 0.000000 0.000000 0.000000 
